<svg width="20" height="20" viewBox="0 0 20 20" fill="none" xmlns="http://www.w3.org/2000/svg">
<path fill-rule="evenodd" clip-rule="evenodd" d="M12.5 2.50009C12.5 3.88073 11.3807 5 10 5C8.61928 5 7.5 3.88069 7.5 2.50009C7.5 1.11927 8.61928 0 10 0C11.3807 0 12.5 1.11931 12.5 2.50009Z" fill="#14154E"/>
<path fill-rule="evenodd" clip-rule="evenodd" d="M7.73893 8.45808C7.47156 11.7395 6.7675 14.9227 5.67005 18.0169C5.40217 18.7726 5.75837 19.6182 6.46499 19.9047C7.17176 20.1911 7.96278 19.8102 8.23067 19.0548C9.00736 16.8644 9.60141 15.6083 10.0001 13.3333C10.3987 15.6087 10.9923 16.8646 11.7692 19.0548C12.0371 19.8104 12.8281 20.1911 13.5348 19.9047C14.2416 19.6183 14.5977 18.7726 14.3298 18.0169C13.2332 14.9241 12.5292 11.7431 12.2614 8.46414C13.9016 8.37809 15.5427 8.19415 17.1836 7.90919C17.9295 7.77958 18.4367 7.02686 18.3155 6.22947C18.1943 5.43188 17.4902 4.88954 16.7444 5.01914C12.2456 5.80085 7.74644 5.77005 3.24768 5.01786C2.50114 4.89298 1.80001 5.43971 1.68337 6.23785C1.56656 7.03632 2.07794 7.7856 2.82447 7.91049C4.46259 8.1843 6.10054 8.36818 7.73893 8.45808Z" fill="#14154E"/>
</svg>
