<svg
  width="12"
  height="17"
  viewBox="0 0 12 17"
  fill="none"
  xmlns="http://www.w3.org/2000/svg"
>
<path
    d="M0 16.5C0 14.9087 0.632141 13.3826 1.75736 12.2574C2.88258 11.1321 4.4087 10.5 6 10.5C7.5913 10.5 9.11742 11.1321 10.2426 12.2574C11.3679 13.3826 12 14.9087 12 16.5H10.5C10.5 15.3065 10.0259 14.1619 9.18198 13.318C8.33807 12.4741 7.19347 12 6 12C4.80653 12 3.66193 12.4741 2.81802 13.318C1.97411 14.1619 1.5 15.3065 1.5 16.5H0ZM6 9.75C3.51375 9.75 1.5 7.73625 1.5 5.25C1.5 2.76375 3.51375 0.75 6 0.75C8.48625 0.75 10.5 2.76375 10.5 5.25C10.5 7.73625 8.48625 9.75 6 9.75ZM6 8.25C7.6575 8.25 9 6.9075 9 5.25C9 3.5925 7.6575 2.25 6 2.25C4.3425 2.25 3 3.5925 3 5.25C3 6.9075 4.3425 8.25 6 8.25Z"
    fill="white"
  />
</svg>
